solid ascii
  facet normal -3.696662e-004 -7.605878e-001 -6.491765e-001
    outer loop
      vertex   -1.084693e+002 2.906378e+001 6.259695e-001
      vertex   -1.046025e+002 2.904083e+001 6.506643e-001
      vertex   -1.084693e+002 2.893182e+001 7.805785e-001
    endloop
  endfacet
  facet normal 0.000000e+000 -1.677863e-002 -1.407817e-002
    outer loop
      vertex   -1.084693e+002 2.893182e+001 7.805785e-001
      vertex   -1.046025e+002 2.904083e+001 6.506643e-001
      vertex   -1.007358e+002 2.904083e+001 6.506643e-001
    endloop
  endfacet
  facet normal 0.000000e+000 -1.679479e-002 -1.409173e-002
    outer loop
      vertex   -1.084693e+002 2.893182e+001 7.805785e-001
      vertex   -1.007358e+002 2.904083e+001 6.506643e-001
      vertex   -9.686900e+001 2.893182e+001 7.805785e-001
    endloop
  endfacet
  facet normal 3.693260e-004 -7.598863e-001 -6.485777e-001
    outer loop
      vertex   -9.686900e+001 2.893182e+001 7.805785e-001
      vertex   -1.007358e+002 2.904083e+001 6.506643e-001
      vertex   -9.686900e+001 2.906378e+001 6.259695e-001
    endloop
  endfacet
  facet normal -2.148555e-005 -3.856071e-002 -3.921117e-002
    outer loop
      vertex   -9.686900e+001 2.906378e+001 6.259695e-001
      vertex   -1.007358e+002 2.904083e+001 6.506643e-001
      vertex   -1.007358e+002 2.919262e+001 5.013935e-001
    endloop
  endfacet
  facet normal 2.788905e-004 -6.900494e-001 -7.222801e-001
    outer loop
      vertex   -9.686900e+001 2.906378e+001 6.259695e-001
      vertex   -1.007358e+002 2.919262e+001 5.013935e-001
      vertex   -9.686900e+001 2.921076e+001 4.855534e-001
    endloop
  endfacet
  facet normal -1.616163e-005 -3.417096e-002 -4.308360e-002
    outer loop
      vertex   -9.686900e+001 2.921076e+001 4.855534e-001
      vertex   -1.007358e+002 2.919262e+001 5.013935e-001
      vertex   -1.007358e+002 2.935941e+001 3.691026e-001
    endloop
  endfacet
  facet normal 1.762841e-004 -6.131020e-001 -7.884966e-001
    outer loop
      vertex   -9.686900e+001 2.921076e+001 4.855534e-001
      vertex   -1.007358e+002 2.935941e+001 3.691026e-001
      vertex   -9.686900e+001 2.937123e+001 3.607809e-001
    endloop
  endfacet
  facet normal -1.019146e-005 -2.939458e-002 -4.646650e-002
    outer loop
      vertex   -9.686900e+001 2.937123e+001 3.607809e-001
      vertex   -1.007358e+002 2.935941e+001 3.691026e-001
      vertex   -1.007358e+002 2.953932e+001 2.552904e-001
    endloop
  endfacet
  facet normal 6.159185e-005 -5.298370e-001 -8.465492e-001
    outer loop
      vertex   -9.686900e+001 2.937123e+001 3.607809e-001
      vertex   -1.007358e+002 2.953932e+001 2.552904e-001
      vertex   -9.686900e+001 2.954353e+001 2.529406e-001
    endloop
  endfacet
  facet normal -6.491279e-005 -4.417509e-001 -8.971369e-001
    outer loop
      vertex   -9.686900e+001 2.954353e+001 2.529406e-001
      vertex   -1.007358e+002 2.953932e+001 2.552904e-001
      vertex   -9.686900e+001 2.972589e+001 1.631466e-001
    endloop
  endfacet
  facet normal -3.567488e-006 -2.428597e-002 -4.932149e-002
    outer loop
      vertex   -9.686900e+001 2.972589e+001 1.631466e-001
      vertex   -1.007358e+002 2.953932e+001 2.552904e-001
      vertex   -1.007358e+002 2.973031e+001 1.612464e-001
    endloop
  endfacet
  facet normal 6.173414e-005 -3.484068e-001 -9.373426e-001
    outer loop
      vertex   -9.686900e+001 2.972589e+001 1.631466e-001
      vertex   -1.007358e+002 2.973031e+001 1.612464e-001
      vertex   -9.686900e+001 2.991642e+001 9.232625e-002
    endloop
  endfacet
  facet normal -1.018938e-005 -1.890818e-002 -5.162961e-002
    outer loop
      vertex   -9.686900e+001 2.991642e+001 9.232625e-002
      vertex   -1.007358e+002 2.973031e+001 1.612464e-001
      vertex   -1.007358e+002 2.993022e+001 8.803626e-002
    endloop
  endfacet
  facet normal 1.764911e-004 -2.514654e-001 -9.678591e-001
    outer loop
      vertex   -9.686900e+001 2.991642e+001 9.232625e-002
      vertex   -1.007358e+002 2.993022e+001 8.803626e-002
      vertex   -9.686900e+001 3.011316e+001 4.121123e-002
    endloop
  endfacet
  facet normal -1.616980e-005 -1.331463e-002 -5.335333e-002
    outer loop
      vertex   -9.686900e+001 3.011316e+001 4.121123e-002
      vertex   -1.007358e+002 2.993022e+001 8.803626e-002
      vertex   -1.007358e+002 3.013677e+001 3.648943e-002
    endloop
  endfacet
  facet normal 2.790362e-004 -1.519232e-001 -9.883727e-001
    outer loop
      vertex   -9.686900e+001 3.011316e+001 4.121123e-002
      vertex   -1.007358e+002 3.013677e+001 3.648943e-002
      vertex   -9.686900e+001 3.031406e+001 1.032948e-002
    endloop
  endfacet
  facet normal -2.148579e-005 -7.568854e-003 -5.447170e-002
    outer loop
      vertex   -9.686900e+001 3.031406e+001 1.032948e-002
      vertex   -1.007358e+002 3.013677e+001 3.648943e-002
      vertex   -1.007358e+002 3.034764e+001 7.189954e-003
    endloop
  endfacet
  facet normal 3.696690e-004 -5.081526e-002 -9.986700e-001
    outer loop
      vertex   -9.686900e+001 3.031406e+001 1.032948e-002
      vertex   -1.007358e+002 3.034764e+001 7.189954e-003
      vertex   -9.686900e+001 3.051707e+001 -8.881784e-015
    endloop
  endfacet
  facet normal -1.355253e-020 -9.285968e-004 -2.188268e-002
    outer loop
      vertex   -9.686900e+001 3.051707e+001 -8.881784e-015
      vertex   -1.007358e+002 3.034764e+001 7.189954e-003
      vertex   -1.046025e+002 3.034764e+001 7.189954e-003
    endloop
  endfacet
  facet normal -0.000000e+000 -9.294894e-004 -2.190372e-002
    outer loop
      vertex   -9.686900e+001 3.051707e+001 -8.881784e-015
      vertex   -1.046025e+002 3.034764e+001 7.189954e-003
      vertex   -1.084693e+002 3.051707e+001 -8.881784e-015
    endloop
  endfacet
  facet normal -3.693273e-004 -5.076839e-002 -9.977489e-001
    outer loop
      vertex   -1.084693e+002 3.051707e+001 -8.881784e-015
      vertex   -1.046025e+002 3.034764e+001 7.189954e-003
      vertex   -1.084693e+002 3.031406e+001 1.032948e-002
    endloop
  endfacet
  facet normal 2.148570e-005 -7.568839e-003 -5.447159e-002
    outer loop
      vertex   -1.084693e+002 3.031406e+001 1.032948e-002
      vertex   -1.046025e+002 3.034764e+001 7.189954e-003
      vertex   -1.046025e+002 3.013677e+001 3.648943e-002
    endloop
  endfacet
  facet normal -2.787418e-004 -1.517632e-001 -9.873320e-001
    outer loop
      vertex   -1.084693e+002 3.031406e+001 1.032948e-002
      vertex   -1.046025e+002 3.013677e+001 3.648943e-002
      vertex   -1.084693e+002 3.011316e+001 4.121123e-002
    endloop
  endfacet
  facet normal 1.616974e-005 -1.331460e-002 -5.335323e-002
    outer loop
      vertex   -1.084693e+002 3.011316e+001 4.121123e-002
      vertex   -1.046025e+002 3.013677e+001 3.648943e-002
      vertex   -1.046025e+002 2.993022e+001 8.803626e-002
    endloop
  endfacet
  facet normal -1.762819e-004 -2.511678e-001 -9.667138e-001
    outer loop
      vertex   -1.084693e+002 3.011316e+001 4.121123e-002
      vertex   -1.046025e+002 2.993022e+001 8.803626e-002
      vertex   -1.084693e+002 2.991642e+001 9.232625e-002
    endloop
  endfacet
  facet normal 1.018934e-005 -1.890814e-002 -5.162951e-002
    outer loop
      vertex   -1.084693e+002 2.991642e+001 9.232625e-002
      vertex   -1.046025e+002 2.993022e+001 8.803626e-002
      vertex   -1.046025e+002 2.973031e+001 1.612464e-001
    endloop
  endfacet
  facet normal -6.165292e-005 -3.479491e-001 -9.361112e-001
    outer loop
      vertex   -1.084693e+002 2.991642e+001 9.232625e-002
      vertex   -1.046025e+002 2.973031e+001 1.612464e-001
      vertex   -1.084693e+002 2.972589e+001 1.631466e-001
    endloop
  endfacet
  facet normal 3.567474e-006 -2.428592e-002 -4.932139e-002
    outer loop
      vertex   -1.084693e+002 2.972589e+001 1.631466e-001
      vertex   -1.046025e+002 2.973031e+001 1.612464e-001
      vertex   -1.046025e+002 2.953932e+001 2.552904e-001
    endloop
  endfacet
  facet normal 6.481893e-005 -4.411131e-001 -8.958414e-001
    outer loop
      vertex   -1.084693e+002 2.972589e+001 1.631466e-001
      vertex   -1.046025e+002 2.953932e+001 2.552904e-001
      vertex   -1.084693e+002 2.954353e+001 2.529406e-001
    endloop
  endfacet
  facet normal -6.167275e-005 -5.305339e-001 -8.476628e-001
    outer loop
      vertex   -1.084693e+002 2.954353e+001 2.529406e-001
      vertex   -1.046025e+002 2.953932e+001 2.552904e-001
      vertex   -1.084693e+002 2.937123e+001 3.607809e-001
    endloop
  endfacet
  facet normal 1.019142e-005 -2.939453e-002 -4.646641e-002
    outer loop
      vertex   -1.084693e+002 2.937123e+001 3.607809e-001
      vertex   -1.046025e+002 2.953932e+001 2.552904e-001
      vertex   -1.046025e+002 2.935941e+001 3.691026e-001
    endloop
  endfacet
  facet normal -1.764926e-004 -6.138283e-001 -7.894307e-001
    outer loop
      vertex   -1.084693e+002 2.937123e+001 3.607809e-001
      vertex   -1.046025e+002 2.935941e+001 3.691026e-001
      vertex   -1.084693e+002 2.921076e+001 4.855534e-001
    endloop
  endfacet
  facet normal 1.616156e-005 -3.417089e-002 -4.308352e-002
    outer loop
      vertex   -1.084693e+002 2.921076e+001 4.855534e-001
      vertex   -1.046025e+002 2.935941e+001 3.691026e-001
      vertex   -1.046025e+002 2.919262e+001 5.013935e-001
    endloop
  endfacet
  facet normal -2.791840e-004 -6.907766e-001 -7.230414e-001
    outer loop
      vertex   -1.084693e+002 2.921076e+001 4.855534e-001
      vertex   -1.046025e+002 2.919262e+001 5.013935e-001
      vertex   -1.084693e+002 2.906378e+001 6.259695e-001
    endloop
  endfacet
  facet normal 2.148547e-005 -3.856064e-002 -3.921109e-002
    outer loop
      vertex   -1.084693e+002 2.906378e+001 6.259695e-001
      vertex   -1.046025e+002 2.919262e+001 5.013935e-001
      vertex   -1.046025e+002 2.904083e+001 6.506643e-001
    endloop
  endfacet
  facet normal 3.469447e-018 -7.001081e-001 -7.119176e-001
    outer loop
      vertex   -1.007358e+002 2.919262e+001 5.013935e-001
      vertex   -1.007358e+002 2.904083e+001 6.506643e-001
      vertex   -1.046025e+002 2.904083e+001 6.506643e-001
    endloop
  endfacet
  facet normal 0.000000e+000 -6.204685e-001 -7.823023e-001
    outer loop
      vertex   -1.007358e+002 2.935941e+001 3.691026e-001
      vertex   -1.007358e+002 2.919262e+001 5.013935e-001
      vertex   -1.046025e+002 2.919262e+001 5.013935e-001
    endloop
  endfacet
  facet normal 0.000000e+000 -7.011683e-001 -7.129958e-001
    outer loop
      vertex   -1.046025e+002 2.919262e+001 5.013935e-001
      vertex   -1.007358e+002 2.919262e+001 5.013935e-001
      vertex   -1.046025e+002 2.904083e+001 6.506643e-001
    endloop
  endfacet
  facet normal 0.000000e+000 -5.337996e-001 -8.438222e-001
    outer loop
      vertex   -1.007358e+002 2.953932e+001 2.552904e-001
      vertex   -1.007358e+002 2.935941e+001 3.691026e-001
      vertex   -1.046025e+002 2.935941e+001 3.691026e-001
    endloop
  endfacet
  facet normal 0.000000e+000 -6.214082e-001 -7.834870e-001
    outer loop
      vertex   -1.046025e+002 2.935941e+001 3.691026e-001
      vertex   -1.007358e+002 2.935941e+001 3.691026e-001
      vertex   -1.046025e+002 2.919262e+001 5.013935e-001
    endloop
  endfacet
  facet normal -3.469447e-018 -4.410837e-001 -8.957807e-001
    outer loop
      vertex   -1.007358e+002 2.973031e+001 1.612464e-001
      vertex   -1.007358e+002 2.953932e+001 2.552904e-001
      vertex   -1.046025e+002 2.953932e+001 2.552904e-001
    endloop
  endfacet
  facet normal 0.000000e+000 -5.346081e-001 -8.451001e-001
    outer loop
      vertex   -1.046025e+002 2.953932e+001 2.552904e-001
      vertex   -1.007358e+002 2.953932e+001 2.552904e-001
      vertex   -1.046025e+002 2.935941e+001 3.691026e-001
    endloop
  endfacet
  facet normal -3.469447e-018 -3.433711e-001 -9.375896e-001
    outer loop
      vertex   -1.007358e+002 2.993022e+001 8.803626e-002
      vertex   -1.007358e+002 2.973031e+001 1.612464e-001
      vertex   -1.046025e+002 2.973031e+001 1.612464e-001
    endloop
  endfacet
  facet normal 0.000000e+000 -4.417517e-001 -8.971374e-001
    outer loop
      vertex   -1.046025e+002 2.973031e+001 1.612464e-001
      vertex   -1.007358e+002 2.973031e+001 1.612464e-001
      vertex   -1.046025e+002 2.953932e+001 2.552904e-001
    endloop
  endfacet
  facet normal 0.000000e+000 -2.417638e-001 -9.687767e-001
    outer loop
      vertex   -1.007358e+002 3.013677e+001 3.648943e-002
      vertex   -1.007358e+002 2.993022e+001 8.803626e-002
      vertex   -1.046025e+002 2.993022e+001 8.803626e-002
    endloop
  endfacet
  facet normal 0.000000e+000 -3.438911e-001 -9.390095e-001
    outer loop
      vertex   -1.046025e+002 2.993022e+001 8.803626e-002
      vertex   -1.007358e+002 2.993022e+001 8.803626e-002
      vertex   -1.046025e+002 2.973031e+001 1.612464e-001
    endloop
  endfacet
  facet normal -8.673617e-019 -1.374198e-001 -9.889863e-001
    outer loop
      vertex   -1.007358e+002 3.034764e+001 7.189954e-003
      vertex   -1.007358e+002 3.013677e+001 3.648943e-002
      vertex   -1.046025e+002 3.013677e+001 3.648943e-002
    endloop
  endfacet
  facet normal 0.000000e+000 -2.421299e-001 -9.702439e-001
    outer loop
      vertex   -1.046025e+002 3.013677e+001 3.648943e-002
      vertex   -1.007358e+002 3.013677e+001 3.648943e-002
      vertex   -1.046025e+002 2.993022e+001 8.803626e-002
    endloop
  endfacet
  facet normal 0.000000e+000 -1.376280e-001 -9.904840e-001
    outer loop
      vertex   -1.046025e+002 3.034764e+001 7.189954e-003
      vertex   -1.007358e+002 3.034764e+001 7.189954e-003
      vertex   -1.046025e+002 3.013677e+001 3.648943e-002
    endloop
  endfacet
  facet normal -2.555946e-013 -6.009186e-014 -7.755477e-001
    outer loop
      vertex   -9.686900e+001 3.051707e+001 -8.881784e-015
      vertex   -9.596915e+001 2.978459e+001 -2.486900e-013
      vertex   -9.686900e+001 2.776598e+001 2.042810e-013
    endloop
  endfacet
  facet normal -3.317233e-013 -7.239530e-014 -9.816113e-001
    outer loop
      vertex   -9.686900e+001 2.776598e+001 2.042810e-013
      vertex   -9.596915e+001 2.978459e+001 -2.486900e-013
      vertex   -9.596915e+001 2.713517e+001 -5.329071e-014
    endloop
  endfacet
  facet normal 2.524355e-029 1.164300e-013 -2.851471e-001
    outer loop
      vertex   -9.686900e+001 2.776598e+001 2.042810e-013
      vertex   -9.596915e+001 2.713517e+001 -5.329071e-014
      vertex   -9.636900e+001 2.713517e+001 -5.329071e-014
    endloop
  endfacet
  facet normal 0.000000e+000 -1.736526e-014 -7.559755e-002
    outer loop
      vertex   -1.084693e+002 3.051707e+001 -8.881784e-015
      vertex   -9.316914e+001 3.167704e+001 -2.753353e-013
      vertex   -9.686900e+001 3.051707e+001 -8.881784e-015
    endloop
  endfacet
  facet normal 1.737798e-014 -9.620942e-014 -1.775329e-001
    outer loop
      vertex   -9.686900e+001 3.051707e+001 -8.881784e-015
      vertex   -9.316914e+001 3.167704e+001 -2.753353e-013
      vertex   -9.266914e+001 3.104622e+001 1.154632e-013
    endloop
  endfacet
  facet normal -4.473938e-015 1.147077e-013 -3.370328e-001
    outer loop
      vertex   -9.686900e+001 3.051707e+001 -8.881784e-015
      vertex   -9.266914e+001 3.104622e+001 1.154632e-013
      vertex   -9.356915e+001 2.978459e+001 -3.019807e-013
    endloop
  endfacet
  facet normal 3.253134e-013 -3.991324e-014 -5.807410e-001
    outer loop
      vertex   -9.356915e+001 2.978459e+001 -3.019807e-013
      vertex   -9.266914e+001 3.104622e+001 1.154632e-013
      vertex   -9.356915e+001 2.849229e+001 -2.131628e-013
    endloop
  endfacet
  facet normal 1.331121e-013 3.453066e-014 -6.329086e-001
    outer loop
      vertex   -9.356915e+001 2.849229e+001 -2.131628e-013
      vertex   -9.266914e+001 3.104622e+001 1.154632e-013
      vertex   -9.266914e+001 2.599963e+001 -1.598721e-013
    endloop
  endfacet
  facet normal -2.026602e-013 -9.135335e-014 -8.503875e-001
    outer loop
      vertex   -9.356915e+001 2.849229e+001 -2.131628e-013
      vertex   -9.266914e+001 2.599963e+001 -1.598721e-013
      vertex   -9.416914e+001 2.773531e+001 1.114475e-014
    endloop
  endfacet
  facet normal -3.940335e-013 -2.761044e-013 -6.538717e-001
    outer loop
      vertex   -9.416914e+001 2.773531e+001 1.114475e-014
      vertex   -9.266914e+001 2.599963e+001 -1.598721e-013
      vertex   -9.416914e+001 2.679446e+001 4.084269e-013
    endloop
  endfacet
  facet normal -3.463375e-015 1.607474e-013 -2.339642e-001
    outer loop
      vertex   -9.416914e+001 2.679446e+001 4.084269e-013
      vertex   -9.266914e+001 2.599963e+001 -1.598721e-013
      vertex   -9.326914e+001 2.599963e+001 -1.509903e-013
    endloop
  endfacet
  facet normal 9.452039e-014 -4.206370e-014 -4.071567e-001
    outer loop
      vertex   -1.084693e+002 2.776598e+001 2.753353e-013
      vertex   -1.093691e+002 2.978459e+001 -1.421085e-013
      vertex   -1.084693e+002 3.051707e+001 -8.881784e-015
    endloop
  endfacet
  facet normal -3.155444e-030 8.152646e-014 -4.482292e-001
    outer loop
      vertex   -1.084693e+002 3.051707e+001 -8.881784e-015
      vertex   -1.093691e+002 2.978459e+001 -1.421085e-013
      vertex   -1.117691e+002 2.978459e+001 -1.421085e-013
    endloop
  endfacet
  facet normal -8.713244e-015 1.005553e-013 -3.370335e-001
    outer loop
      vertex   -1.084693e+002 3.051707e+001 -8.881784e-015
      vertex   -1.117691e+002 2.978459e+001 -1.421085e-013
      vertex   -1.126691e+002 3.104622e+001 2.575717e-013
    endloop
  endfacet
  facet normal -1.524524e-013 -2.095300e-014 -2.771527e-001
    outer loop
      vertex   -1.126691e+002 3.104622e+001 2.575717e-013
      vertex   -1.117691e+002 2.978459e+001 -1.421085e-013
      vertex   -1.117691e+002 2.849229e+001 -4.440892e-014
    endloop
  endfacet
  facet normal -6.338205e-014 1.696346e-014 -3.323642e-001
    outer loop
      vertex   -1.126691e+002 3.104622e+001 2.575717e-013
      vertex   -1.117691e+002 2.849229e+001 -4.440892e-014
      vertex   -1.126691e+002 2.599963e+001 0.000000e+000
    endloop
  endfacet
  facet normal -1.037319e-013 3.107436e-014 -3.580656e-001
    outer loop
      vertex   -1.126691e+002 2.599963e+001 0.000000e+000
      vertex   -1.117691e+002 2.849229e+001 -4.440892e-014
      vertex   -1.111691e+002 2.773531e+001 -2.839227e-013
    endloop
  endfacet
  facet normal 1.687773e-013 -2.051412e-013 -3.623953e-001
    outer loop
      vertex   -1.126691e+002 2.599963e+001 0.000000e+000
      vertex   -1.111691e+002 2.773531e+001 -2.839227e-013
      vertex   -1.111691e+002 2.679446e+001 2.486620e-013
    endloop
  endfacet
  facet normal 0.000000e+000 2.979206e-013 -7.836803e-001
    outer loop
      vertex   -1.089693e+002 2.713517e+001 3.552714e-014
      vertex   -1.093691e+002 2.713517e+001 3.552714e-014
      vertex   -1.084693e+002 2.776598e+001 2.753353e-013
    endloop
  endfacet
  facet normal 3.077322e-013 -6.581391e-014 -9.816113e-001
    outer loop
      vertex   -1.084693e+002 2.776598e+001 2.753353e-013
      vertex   -1.093691e+002 2.713517e+001 3.552714e-014
      vertex   -1.093691e+002 2.978459e+001 -1.421085e-013
    endloop
  endfacet
  facet normal -1.262177e-029 7.319569e-014 -2.339642e-001
    outer loop
      vertex   -1.111691e+002 2.679446e+001 2.486620e-013
      vertex   -1.120691e+002 2.599963e+001 0.000000e+000
      vertex   -1.126691e+002 2.599963e+001 0.000000e+000
    endloop
  endfacet
  facet normal -1.100197e-013 -4.425914e-013 -8.551829e-001
    outer loop
      vertex   -1.126691e+002 3.104622e+001 2.575717e-013
      vertex   -1.121691e+002 3.167704e+001 -1.332268e-013
      vertex   -1.084693e+002 3.051707e+001 -8.881784e-015
    endloop
  endfacet
  facet normal -2.770667e-015 -4.854715e-014 -3.704398e-001
    outer loop
      vertex   -1.084693e+002 3.051707e+001 -8.881784e-015
      vertex   -1.121691e+002 3.167704e+001 -1.332268e-013
      vertex   -9.316914e+001 3.167704e+001 -2.753353e-013
    endloop
  endfacet
  facet normal -4.811646e-015 6.503431e-014 -2.166974e-001
    outer loop
      vertex   -9.356915e+001 2.978459e+001 -3.019807e-013
      vertex   -9.596915e+001 2.978459e+001 -2.486900e-013
      vertex   -9.686900e+001 3.051707e+001 -8.881784e-015
    endloop
  endfacet
  facet normal -3.700012e-004 -9.782922e-001 2.070467e-001
    outer loop
      vertex   -1.084693e+002 2.653665e+001 4.920967e+000
      vertex   -1.046025e+002 2.654223e+001 4.954219e+000
      vertex   -1.084693e+002 2.657874e+001 5.119830e+000
    endloop
  endfacet
  facet normal 0.000000e+000 -2.138884e-002 4.715632e-003
    outer loop
      vertex   -1.084693e+002 2.657874e+001 5.119830e+000
      vertex   -1.046025e+002 2.654223e+001 4.954219e+000
      vertex   -1.007358e+002 2.654223e+001 4.954219e+000
    endloop
  endfacet
  facet normal 0.000000e+000 -2.140944e-002 4.720174e-003
    outer loop
      vertex   -1.084693e+002 2.657874e+001 5.119830e+000
      vertex   -1.007358e+002 2.654223e+001 4.954219e+000
      vertex   -9.686900e+001 2.657874e+001 5.119830e+000
    endloop
  endfacet
  facet normal 3.696606e-004 -9.773899e-001 2.068557e-001
    outer loop
      vertex   -9.686900e+001 2.657874e+001 5.119830e+000
      vertex   -1.007358e+002 2.654223e+001 4.954219e+000
      vertex   -9.686900e+001 2.653665e+001 4.920967e+000
    endloop
  endfacet
  facet normal -2.146514e-005 -5.459057e-002 6.656650e-003
    outer loop
      vertex   -9.686900e+001 2.653665e+001 4.920967e+000
      vertex   -1.007358e+002 2.654223e+001 4.954219e+000
      vertex   -1.007358e+002 2.651646e+001 4.742896e+000
    endloop
  endfacet
  facet normal 2.789129e-004 -9.932262e-001 1.065748e-001
    outer loop
      vertex   -9.686900e+001 2.653665e+001 4.920967e+000
      vertex   -1.007358e+002 2.651646e+001 4.742896e+000
      vertex   -9.686900e+001 2.651497e+001 4.718858e+000
    endloop
  endfacet
  facet normal -1.616435e-005 -5.498346e-002 8.158635e-004
    outer loop
      vertex   -9.686900e+001 2.651497e+001 4.718858e+000
      vertex   -1.007358e+002 2.651646e+001 4.742896e+000
      vertex   -1.007358e+002 2.651330e+001 4.530031e+000
    endloop
  endfacet
  facet normal 1.760920e-004 -9.987961e-001 5.201600e-003
    outer loop
      vertex   -9.686900e+001 2.651497e+001 4.718858e+000
      vertex   -1.007358e+002 2.651330e+001 4.530031e+000
      vertex   -9.686900e+001 2.651391e+001 4.515593e+000
    endloop
  endfacet
  facet normal -1.020027e-005 -5.475255e-002 -5.032073e-003
    outer loop
      vertex   -9.686900e+001 2.651391e+001 4.515593e+000
      vertex   -1.007358e+002 2.651330e+001 4.530031e+000
      vertex   -1.007358e+002 2.653278e+001 4.318036e+000
    endloop
  endfacet
  facet normal 6.188855e-005 -9.940420e-001 -9.619413e-002
    outer loop
      vertex   -9.686900e+001 2.651391e+001 4.515593e+000
      vertex   -1.007358e+002 2.653278e+001 4.318036e+000
      vertex   -9.686900e+001 2.653349e+001 4.313270e+000
    endloop
  endfacet
  facet normal -6.462727e-005 -9.804338e-001 -1.968454e-001
    outer loop
      vertex   -9.686900e+001 2.653349e+001 4.313270e+000
      vertex   -1.007358e+002 2.653278e+001 4.318036e+000
      vertex   -9.686900e+001 2.657350e+001 4.113979e+000
    endloop
  endfacet
  facet normal -3.556186e-006 -5.390077e-002 -1.082192e-002
    outer loop
      vertex   -9.686900e+001 2.657350e+001 4.113979e+000
      vertex   -1.007358e+002 2.653278e+001 4.318036e+000
      vertex   -1.007358e+002 2.657469e+001 4.109313e+000
    endloop
  endfacet
  facet normal 6.192207e-005 -9.553878e-001 -2.953517e-001
    outer loop
      vertex   -9.686900e+001 2.657350e+001 4.113979e+000
      vertex   -1.007358e+002 2.657469e+001 4.109313e+000
      vertex   -9.686900e+001 2.663353e+001 3.919779e+000
    endloop
  endfacet
  facet normal -1.018841e-005 -5.245166e-002 -1.649229e-002
    outer loop
      vertex   -9.686900e+001 2.663353e+001 3.919779e+000
      vertex   -1.007358e+002 2.657469e+001 4.109313e+000
      vertex   -1.007358e+002 2.663855e+001 3.906226e+000
    endloop
  endfacet
  facet normal 1.765255e-004 -9.204690e-001 -3.907977e-001
    outer loop
      vertex   -9.686900e+001 2.663353e+001 3.919779e+000
      vertex   -1.007358e+002 2.663855e+001 3.906226e+000
      vertex   -9.686900e+001 2.671297e+001 3.732676e+000
    endloop
  endfacet
  facet normal -1.616449e-005 -5.040716e-002 -2.197658e-002
    outer loop
      vertex   -9.686900e+001 2.671297e+001 3.732676e+000
      vertex   -1.007358e+002 2.663855e+001 3.906226e+000
      vertex   -1.007358e+002 2.672363e+001 3.711078e+000
    endloop
  endfacet
  facet normal 2.791304e-004 -8.760368e-001 -4.822040e-001
    outer loop
      vertex   -9.686900e+001 2.671297e+001 3.732676e+000
      vertex   -1.007358e+002 2.672363e+001 3.711078e+000
      vertex   -9.686900e+001 2.681099e+001 3.554602e+000
    endloop
  endfacet
  facet normal -2.148999e-005 -4.779029e-002 -2.721294e-002
    outer loop
      vertex   -9.686900e+001 2.681099e+001 3.554602e+000
      vertex   -1.007358e+002 2.672363e+001 3.711078e+000
      vertex   -1.007358e+002 2.682897e+001 3.526079e+000
    endloop
  endfacet
  facet normal 3.695517e-004 -8.225524e-001 -5.686224e-001
    outer loop
      vertex   -9.686900e+001 2.681099e+001 3.554602e+000
      vertex   -1.007358e+002 2.682897e+001 3.526079e+000
      vertex   -9.686900e+001 2.692658e+001 3.387397e+000
    endloop
  endfacet
  facet normal -5.421011e-020 -1.791104e-002 -1.260609e-002
    outer loop
      vertex   -9.686900e+001 2.692658e+001 3.387397e+000
      vertex   -1.007358e+002 2.682897e+001 3.526079e+000
      vertex   -1.046025e+002 2.682897e+001 3.526079e+000
    endloop
  endfacet
  facet normal -0.000000e+000 -1.792826e-002 -1.261821e-002
    outer loop
      vertex   -9.686900e+001 2.692658e+001 3.387397e+000
      vertex   -1.046025e+002 2.682897e+001 3.526079e+000
      vertex   -1.084693e+002 2.692658e+001 3.387397e+000
    endloop
  endfacet
  facet normal -3.692101e-004 -8.217937e-001 -5.680979e-001
    outer loop
      vertex   -1.084693e+002 2.692658e+001 3.387397e+000
      vertex   -1.046025e+002 2.682897e+001 3.526079e+000
      vertex   -1.084693e+002 2.681099e+001 3.554602e+000
    endloop
  endfacet
  facet normal 2.148991e-005 -4.779020e-002 -2.721288e-002
    outer loop
      vertex   -1.084693e+002 2.681099e+001 3.554602e+000
      vertex   -1.046025e+002 2.682897e+001 3.526079e+000
      vertex   -1.046025e+002 2.672363e+001 3.711078e+000
    endloop
  endfacet
  facet normal -2.788359e-004 -8.751144e-001 -4.816963e-001
    outer loop
      vertex   -1.084693e+002 2.681099e+001 3.554602e+000
      vertex   -1.046025e+002 2.672363e+001 3.711078e+000
      vertex   -1.084693e+002 2.671297e+001 3.732676e+000
    endloop
  endfacet
  facet normal 1.616443e-005 -5.040706e-002 -2.197654e-002
    outer loop
      vertex   -1.084693e+002 2.671297e+001 3.732676e+000
      vertex   -1.046025e+002 2.672363e+001 3.711078e+000
      vertex   -1.046025e+002 2.663855e+001 3.906226e+000
    endloop
  endfacet
  facet normal -1.763163e-004 -9.193798e-001 -3.903353e-001
    outer loop
      vertex   -1.084693e+002 2.671297e+001 3.732676e+000
      vertex   -1.046025e+002 2.663855e+001 3.906226e+000
      vertex   -1.084693e+002 2.663353e+001 3.919779e+000
    endloop
  endfacet
  facet normal 1.018837e-005 -5.245156e-002 -1.649226e-002
    outer loop
      vertex   -1.084693e+002 2.663353e+001 3.919779e+000
      vertex   -1.046025e+002 2.663855e+001 3.906226e+000
      vertex   -1.046025e+002 2.657469e+001 4.109313e+000
    endloop
  endfacet
  facet normal -6.184060e-005 -9.541327e-001 -2.949637e-001
    outer loop
      vertex   -1.084693e+002 2.663353e+001 3.919779e+000
      vertex   -1.046025e+002 2.657469e+001 4.109313e+000
      vertex   -1.084693e+002 2.657350e+001 4.113979e+000
    endloop
  endfacet
  facet normal 3.556172e-006 -5.390066e-002 -1.082190e-002
    outer loop
      vertex   -1.084693e+002 2.657350e+001 4.113979e+000
      vertex   -1.046025e+002 2.657469e+001 4.109313e+000
      vertex   -1.046025e+002 2.653278e+001 4.318036e+000
    endloop
  endfacet
  facet normal 6.453383e-005 -9.790180e-001 -1.965612e-001
    outer loop
      vertex   -1.084693e+002 2.657350e+001 4.113979e+000
      vertex   -1.046025e+002 2.653278e+001 4.318036e+000
      vertex   -1.084693e+002 2.653349e+001 4.313270e+000
    endloop
  endfacet
  facet normal -6.196983e-005 -9.953496e-001 -9.632067e-002
    outer loop
      vertex   -1.084693e+002 2.653349e+001 4.313270e+000
      vertex   -1.046025e+002 2.653278e+001 4.318036e+000
      vertex   -1.084693e+002 2.651391e+001 4.515593e+000
    endloop
  endfacet
  facet normal 1.020023e-005 -5.475244e-002 -5.032063e-003
    outer loop
      vertex   -1.084693e+002 2.651391e+001 4.515593e+000
      vertex   -1.046025e+002 2.653278e+001 4.318036e+000
      vertex   -1.046025e+002 2.651330e+001 4.530031e+000
    endloop
  endfacet
  facet normal -1.763003e-004 -9.999794e-001 5.207762e-003
    outer loop
      vertex   -1.084693e+002 2.651391e+001 4.515593e+000
      vertex   -1.046025e+002 2.651330e+001 4.530031e+000
      vertex   -1.084693e+002 2.651497e+001 4.718858e+000
    endloop
  endfacet
  facet normal 1.616429e-005 -5.498335e-002 8.158619e-004
    outer loop
      vertex   -1.084693e+002 2.651497e+001 4.718858e+000
      vertex   -1.046025e+002 2.651330e+001 4.530031e+000
      vertex   -1.046025e+002 2.651646e+001 4.742896e+000
    endloop
  endfacet
  facet normal -2.792063e-004 -9.942731e-001 1.066871e-001
    outer loop
      vertex   -1.084693e+002 2.651497e+001 4.718858e+000
      vertex   -1.046025e+002 2.651646e+001 4.742896e+000
      vertex   -1.084693e+002 2.653665e+001 4.920967e+000
    endloop
  endfacet
  facet normal 2.146505e-005 -5.459046e-002 6.656637e-003
    outer loop
      vertex   -1.084693e+002 2.653665e+001 4.920967e+000
      vertex   -1.046025e+002 2.651646e+001 4.742896e+000
      vertex   -1.046025e+002 2.654223e+001 4.954219e+000
    endloop
  endfacet
  facet normal 0.000000e+000 -9.911464e-001 1.208582e-001
    outer loop
      vertex   -1.007358e+002 2.651646e+001 4.742896e+000
      vertex   -1.007358e+002 2.654223e+001 4.954219e+000
      vertex   -1.046025e+002 2.654223e+001 4.954219e+000
    endloop
  endfacet
  facet normal -1.084202e-019 -9.983779e-001 1.481428e-002
    outer loop
      vertex   -1.007358e+002 2.651330e+001 4.530031e+000
      vertex   -1.007358e+002 2.651646e+001 4.742896e+000
      vertex   -1.046025e+002 2.651646e+001 4.742896e+000
    endloop
  endfacet
  facet normal 0.000000e+000 -9.926475e-001 1.210412e-001
    outer loop
      vertex   -1.046025e+002 2.651646e+001 4.742896e+000
      vertex   -1.007358e+002 2.651646e+001 4.742896e+000
      vertex   -1.046025e+002 2.654223e+001 4.954219e+000
    endloop
  endfacet
  facet normal -8.673617e-019 -9.942974e-001 -9.138163e-002
    outer loop
      vertex   -1.007358e+002 2.653278e+001 4.318036e+000
      vertex   -1.007358e+002 2.651330e+001 4.530031e+000
      vertex   -1.046025e+002 2.651330e+001 4.530031e+000
    endloop
  endfacet
  facet normal 0.000000e+000 -9.998899e-001 1.483671e-002
    outer loop
      vertex   -1.046025e+002 2.651330e+001 4.530031e+000
      vertex   -1.007358e+002 2.651330e+001 4.530031e+000
      vertex   -1.046025e+002 2.651646e+001 4.742896e+000
    endloop
  endfacet
  facet normal -1.734723e-018 -9.789518e-001 -1.965490e-001
    outer loop
      vertex   -1.007358e+002 2.657469e+001 4.109313e+000
      vertex   -1.007358e+002 2.653278e+001 4.318036e+000
      vertex   -1.046025e+002 2.653278e+001 4.318036e+000
    endloop
  endfacet
  facet normal 0.000000e+000 -9.958032e-001 -9.152002e-002
    outer loop
      vertex   -1.046025e+002 2.653278e+001 4.318036e+000
      vertex   -1.007358e+002 2.653278e+001 4.318036e+000
      vertex   -1.046025e+002 2.651330e+001 4.530031e+000
    endloop
  endfacet
  facet normal 3.469447e-018 -9.525123e-001 -2.994969e-001
    outer loop
      vertex   -1.007358e+002 2.663855e+001 3.906226e+000
      vertex   -1.007358e+002 2.657469e+001 4.109313e+000
      vertex   -1.046025e+002 2.657469e+001 4.109313e+000
    endloop
  endfacet
  facet normal 0.000000e+000 -9.804343e-001 -1.968466e-001
    outer loop
      vertex   -1.046025e+002 2.657469e+001 4.109313e+000
      vertex   -1.007358e+002 2.657469e+001 4.109313e+000
      vertex   -1.046025e+002 2.653278e+001 4.318036e+000
    endloop
  endfacet
  facet normal 0.000000e+000 -9.152817e-001 -3.990458e-001
    outer loop
      vertex   -1.007358e+002 2.672363e+001 3.711078e+000
      vertex   -1.007358e+002 2.663855e+001 3.906226e+000
      vertex   -1.046025e+002 2.663855e+001 3.906226e+000
    endloop
  endfacet
  facet normal 0.000000e+000 -9.539548e-001 -2.999505e-001
    outer loop
      vertex   -1.046025e+002 2.663855e+001 3.906226e+000
      vertex   -1.007358e+002 2.663855e+001 3.906226e+000
      vertex   -1.046025e+002 2.657469e+001 4.109313e+000
    endloop
  endfacet
  facet normal 0.000000e+000 -8.676785e-001 -4.940770e-001
    outer loop
      vertex   -1.007358e+002 2.682897e+001 3.526079e+000
      vertex   -1.007358e+002 2.672363e+001 3.711078e+000
      vertex   -1.046025e+002 2.672363e+001 3.711078e+000
    endloop
  endfacet
  facet normal 0.000000e+000 -9.166678e-001 -3.996501e-001
    outer loop
      vertex   -1.046025e+002 2.672363e+001 3.711078e+000
      vertex   -1.007358e+002 2.672363e+001 3.711078e+000
      vertex   -1.046025e+002 2.663855e+001 3.906226e+000
    endloop
  endfacet
  facet normal 0.000000e+000 -8.689925e-001 -4.948252e-001
    outer loop
      vertex   -1.046025e+002 2.682897e+001 3.526079e+000
      vertex   -1.007358e+002 2.682897e+001 3.526079e+000
      vertex   -1.046025e+002 2.672363e+001 3.711078e+000
    endloop
  endfacet
  facet normal -0.000000e+000 -7.926239e-001 -6.097109e-001
    outer loop
      vertex   -9.686900e+001 2.893182e+001 7.805785e-001
      vertex   -9.686900e+001 2.692658e+001 3.387397e+000
      vertex   -1.084693e+002 2.893182e+001 7.805785e-001
    endloop
  endfacet
  facet normal 2.775558e-017 -7.625685e-001 -5.865912e-001
    outer loop
      vertex   -1.084693e+002 2.893182e+001 7.805785e-001
      vertex   -9.686900e+001 2.692658e+001 3.387397e+000
      vertex   -1.084693e+002 2.692658e+001 3.387397e+000
    endloop
  endfacet
  facet normal -5.081992e-002 0.000000e+000 0.000000e+000
    outer loop
      vertex   -9.686900e+001 2.657874e+001 5.119830e+000
      vertex   -9.686900e+001 2.653665e+001 4.920967e+000
      vertex   -9.686900e+001 2.587307e+001 2.460786e+000
    endloop
  endfacet
  facet normal -1.350148e-002 0.000000e+000 0.000000e+000
    outer loop
      vertex   -9.686900e+001 2.587307e+001 2.460786e+000
      vertex   -9.686900e+001 2.653665e+001 4.920967e+000
      vertex   -9.686900e+001 2.651497e+001 4.718858e+000
    endloop
  endfacet
  facet normal -2.534885e-002 0.000000e+000 0.000000e+000
    outer loop
      vertex   -9.686900e+001 2.587307e+001 2.460786e+000
      vertex   -9.686900e+001 2.651497e+001 4.718858e+000
      vertex   -9.686900e+001 2.651391e+001 4.515593e+000
    endloop
  endfacet
  facet normal -3.882970e-001 0.000000e+000 -0.000000e+000
    outer loop
      vertex   -9.686900e+001 2.651391e+001 4.515593e+000
      vertex   -9.686900e+001 2.653349e+001 4.313270e+000
      vertex   -9.686900e+001 2.587307e+001 2.460786e+000
    endloop
  endfacet
  facet normal -5.826449e-002 0.000000e+000 0.000000e+000
    outer loop
      vertex   -9.686900e+001 2.587307e+001 2.460786e+000
      vertex   -9.686900e+001 2.653349e+001 4.313270e+000
      vertex   -9.686900e+001 2.657350e+001 4.113979e+000
    endloop
  endfacet
  facet normal -7.964502e-002 0.000000e+000 0.000000e+000
    outer loop
      vertex   -9.686900e+001 2.587307e+001 2.460786e+000
      vertex   -9.686900e+001 2.657350e+001 4.113979e+000
      vertex   -9.686900e+001 2.663353e+001 3.919779e+000
    endloop
  endfacet
  facet normal -7.720015e-001 0.000000e+000 -0.000000e+000
    outer loop
      vertex   -9.686900e+001 2.663353e+001 3.919779e+000
      vertex   -9.686900e+001 2.671297e+001 3.732676e+000
      vertex   -9.686900e+001 2.587307e+001 2.460786e+000
    endloop
  endfacet
  facet normal -1.248694e-001 0.000000e+000 0.000000e+000
    outer loop
      vertex   -9.686900e+001 2.587307e+001 2.460786e+000
      vertex   -9.686900e+001 2.671297e+001 3.732676e+000
      vertex   -9.686900e+001 2.681099e+001 3.554602e+000
    endloop
  endfacet
  facet normal -1.401156e-001 0.000000e+000 0.000000e+000
    outer loop
      vertex   -9.686900e+001 2.587307e+001 2.460786e+000
      vertex   -9.686900e+001 2.681099e+001 3.554602e+000
      vertex   -9.686900e+001 2.692658e+001 3.387397e+000
    endloop
  endfacet
  facet normal -9.978422e-001 0.000000e+000 -0.000000e+000
    outer loop
      vertex   -9.686900e+001 2.692658e+001 3.387397e+000
      vertex   -9.686900e+001 2.893182e+001 7.805785e-001
      vertex   -9.686900e+001 2.587307e+001 2.460786e+000
    endloop
  endfacet
  facet normal -4.011633e-001 0.000000e+000 0.000000e+000
    outer loop
      vertex   -9.686900e+001 2.587307e+001 2.460786e+000
      vertex   -9.686900e+001 2.893182e+001 7.805785e-001
      vertex   -9.686900e+001 2.776598e+001 2.042810e-013
    endloop
  endfacet
  facet normal -1.401154e-001 0.000000e+000 0.000000e+000
    outer loop
      vertex   -9.686900e+001 2.776598e+001 2.042810e-013
      vertex   -9.686900e+001 2.893182e+001 7.805785e-001
      vertex   -9.686900e+001 2.906378e+001 6.259695e-001
    endloop
  endfacet
  facet normal -1.248694e-001 0.000000e+000 0.000000e+000
    outer loop
      vertex   -9.686900e+001 2.776598e+001 2.042810e-013
      vertex   -9.686900e+001 2.906378e+001 6.259695e-001
      vertex   -9.686900e+001 2.921076e+001 4.855534e-001
    endloop
  endfacet
  facet normal -8.333398e-001 0.000000e+000 -0.000000e+000
    outer loop
      vertex   -9.686900e+001 2.921076e+001 4.855534e-001
      vertex   -9.686900e+001 2.937123e+001 3.607809e-001
      vertex   -9.686900e+001 2.776598e+001 2.042810e-013
    endloop
  endfacet
  facet normal -7.964472e-002 0.000000e+000 0.000000e+000
    outer loop
      vertex   -9.686900e+001 2.776598e+001 2.042810e-013
      vertex   -9.686900e+001 2.937123e+001 3.607809e-001
      vertex   -9.686900e+001 2.954353e+001 2.529406e-001
    endloop
  endfacet
  facet normal -5.826513e-002 0.000000e+000 0.000000e+000
    outer loop
      vertex   -9.686900e+001 2.776598e+001 2.042810e-013
      vertex   -9.686900e+001 2.954353e+001 2.529406e-001
      vertex   -9.686900e+001 2.972589e+001 1.631466e-001
    endloop
  endfacet
  facet normal -4.249637e-001 0.000000e+000 -0.000000e+000
    outer loop
      vertex   -9.686900e+001 2.972589e+001 1.631466e-001
      vertex   -9.686900e+001 2.991642e+001 9.232625e-002
      vertex   -9.686900e+001 2.776598e+001 2.042810e-013
    endloop
  endfacet
  facet normal -2.534862e-002 0.000000e+000 0.000000e+000
    outer loop
      vertex   -9.686900e+001 2.776598e+001 2.042810e-013
      vertex   -9.686900e+001 2.991642e+001 9.232625e-002
      vertex   -9.686900e+001 3.011316e+001 4.121123e-002
    endloop
  endfacet
  facet normal -1.350179e-002 0.000000e+000 0.000000e+000
    outer loop
      vertex   -9.686900e+001 2.776598e+001 2.042810e-013
      vertex   -9.686900e+001 3.011316e+001 4.121123e-002
      vertex   -9.686900e+001 3.031406e+001 1.032948e-002
    endloop
  endfacet
  facet normal -5.486533e-002 0.000000e+000 -0.000000e+000
    outer loop
      vertex   -9.686900e+001 3.031406e+001 1.032948e-002
      vertex   -9.686900e+001 3.051707e+001 -8.881784e-015
      vertex   -9.686900e+001 2.776598e+001 2.042810e-013
    endloop
  endfacet
  facet normal 5.081992e-002 0.000000e+000 0.000000e+000
    outer loop
      vertex   -1.084693e+002 2.657874e+001 5.119830e+000
      vertex   -1.084693e+002 2.587307e+001 2.460786e+000
      vertex   -1.084693e+002 2.653665e+001 4.920967e+000
    endloop
  endfacet
  facet normal 1.559276e-001 0.000000e+000 0.000000e+000
    outer loop
      vertex   -1.084693e+002 2.653665e+001 4.920967e+000
      vertex   -1.084693e+002 2.587307e+001 2.460786e+000
      vertex   -1.084693e+002 2.651497e+001 4.718858e+000
    endloop
  endfacet
  facet normal 2.684207e-001 0.000000e+000 0.000000e+000
    outer loop
      vertex   -1.084693e+002 2.651497e+001 4.718858e+000
      vertex   -1.084693e+002 2.587307e+001 2.460786e+000
      vertex   -1.084693e+002 2.651391e+001 4.515593e+000
    endloop
  endfacet
  facet normal 3.882970e-001 0.000000e+000 0.000000e+000
    outer loop
      vertex   -1.084693e+002 2.651391e+001 4.515593e+000
      vertex   -1.084693e+002 2.587307e+001 2.460786e+000
      vertex   -1.084693e+002 2.653349e+001 4.313270e+000
    endloop
  endfacet
  facet normal 5.146467e-001 0.000000e+000 0.000000e+000
    outer loop
      vertex   -1.084693e+002 2.653349e+001 4.313270e+000
      vertex   -1.084693e+002 2.587307e+001 2.460786e+000
      vertex   -1.084693e+002 2.657350e+001 4.113979e+000
    endloop
  endfacet
  facet normal 6.446592e-001 0.000000e+000 0.000000e+000
    outer loop
      vertex   -1.084693e+002 2.657350e+001 4.113979e+000
      vertex   -1.084693e+002 2.587307e+001 2.460786e+000
      vertex   -1.084693e+002 2.663353e+001 3.919779e+000
    endloop
  endfacet
  facet normal 7.720015e-001 0.000000e+000 0.000000e+000
    outer loop
      vertex   -1.084693e+002 2.663353e+001 3.919779e+000
      vertex   -1.084693e+002 2.587307e+001 2.460786e+000
      vertex   -1.084693e+002 2.671297e+001 3.732676e+000
    endloop
  endfacet
  facet normal 8.851429e-001 0.000000e+000 0.000000e+000
    outer loop
      vertex   -1.084693e+002 2.671297e+001 3.732676e+000
      vertex   -1.084693e+002 2.587307e+001 2.460786e+000
      vertex   -1.084693e+002 2.681099e+001 3.554602e+000
    endloop
  endfacet
  facet normal 9.671258e-001 0.000000e+000 0.000000e+000
    outer loop
      vertex   -1.084693e+002 2.681099e+001 3.554602e+000
      vertex   -1.084693e+002 2.587307e+001 2.460786e+000
      vertex   -1.084693e+002 2.692658e+001 3.387397e+000
    endloop
  endfacet
  facet normal 8.876905e-001 0.000000e+000 0.000000e+000
    outer loop
      vertex   -1.084693e+002 2.692658e+001 3.387397e+000
      vertex   -1.084693e+002 2.587307e+001 2.460786e+000
      vertex   -1.084693e+002 2.776598e+001 2.753353e-013
    endloop
  endfacet
  facet normal 4.011633e-001 0.000000e+000 0.000000e+000
    outer loop
      vertex   -1.084693e+002 2.692658e+001 3.387397e+000
      vertex   -1.084693e+002 2.776598e+001 2.753353e-013
      vertex   -1.084693e+002 2.893182e+001 7.805785e-001
    endloop
  endfacet
  facet normal 9.932165e-001 0.000000e+000 0.000000e+000
    outer loop
      vertex   -1.084693e+002 2.893182e+001 7.805785e-001
      vertex   -1.084693e+002 2.776598e+001 2.753353e-013
      vertex   -1.084693e+002 2.906378e+001 6.259695e-001
    endloop
  endfacet
  facet normal 9.363179e-001 0.000000e+000 0.000000e+000
    outer loop
      vertex   -1.084693e+002 2.906378e+001 6.259695e-001
      vertex   -1.084693e+002 2.776598e+001 2.753353e-013
      vertex   -1.084693e+002 2.921076e+001 4.855534e-001
    endloop
  endfacet
  facet normal 8.333398e-001 0.000000e+000 0.000000e+000
    outer loop
      vertex   -1.084693e+002 2.921076e+001 4.855534e-001
      vertex   -1.084693e+002 2.776598e+001 2.753353e-013
      vertex   -1.084693e+002 2.937123e+001 3.607809e-001
    endloop
  endfacet
  facet normal 7.034988e-001 0.000000e+000 0.000000e+000
    outer loop
      vertex   -1.084693e+002 2.937123e+001 3.607809e-001
      vertex   -1.084693e+002 2.776598e+001 2.753353e-013
      vertex   -1.084693e+002 2.954353e+001 2.529406e-001
    endloop
  endfacet
  facet normal 5.637330e-001 0.000000e+000 0.000000e+000
    outer loop
      vertex   -1.084693e+002 2.954353e+001 2.529406e-001
      vertex   -1.084693e+002 2.776598e+001 2.753353e-013
      vertex   -1.084693e+002 2.972589e+001 1.631466e-001
    endloop
  endfacet
  facet normal 4.249637e-001 0.000000e+000 0.000000e+000
    outer loop
      vertex   -1.084693e+002 2.972589e+001 1.631466e-001
      vertex   -1.084693e+002 2.776598e+001 2.753353e-013
      vertex   -1.084693e+002 2.991642e+001 9.232625e-002
    endloop
  endfacet
  facet normal 2.927515e-001 0.000000e+000 0.000000e+000
    outer loop
      vertex   -1.084693e+002 2.991642e+001 9.232625e-002
      vertex   -1.084693e+002 2.776598e+001 2.753353e-013
      vertex   -1.084693e+002 3.011316e+001 4.121123e-002
    endloop
  endfacet
  facet normal 1.692540e-001 0.000000e+000 0.000000e+000
    outer loop
      vertex   -1.084693e+002 3.011316e+001 4.121123e-002
      vertex   -1.084693e+002 2.776598e+001 2.753353e-013
      vertex   -1.084693e+002 3.031406e+001 1.032948e-002
    endloop
  endfacet
  facet normal 5.486533e-002 0.000000e+000 0.000000e+000
    outer loop
      vertex   -1.084693e+002 3.031406e+001 1.032948e-002
      vertex   -1.084693e+002 2.776598e+001 2.753353e-013
      vertex   -1.084693e+002 3.051707e+001 -8.881784e-015
    endloop
  endfacet
  facet normal -3.833472e-007 -3.935346e-001 1.044380e-001
    outer loop
      vertex   -9.686900e+001 2.587307e+001 2.460786e+000
      vertex   -9.596915e+001 2.639085e+001 4.411860e+000
      vertex   -9.686900e+001 2.657874e+001 5.119830e+000
    endloop
  endfacet
  facet normal 0.000000e+000 -4.332335e-001 1.149741e-001
    outer loop
      vertex   -9.686900e+001 2.657874e+001 5.119830e+000
      vertex   -9.596915e+001 2.639085e+001 4.411860e+000
      vertex   -9.356915e+001 2.639085e+001 4.411860e+000
    endloop
  endfacet
  facet normal -6.558139e-008 -3.257570e-001 8.645101e-002
    outer loop
      vertex   -9.686900e+001 2.657874e+001 5.119830e+000
      vertex   -9.356915e+001 2.639085e+001 4.411860e+000
      vertex   -9.266914e+001 2.671447e+001 5.631281e+000
    endloop
  endfacet
  facet normal 5.994819e-008 -2.678795e-001 7.109109e-002
    outer loop
      vertex   -9.266914e+001 2.671447e+001 5.631281e+000
      vertex   -9.356915e+001 2.639085e+001 4.411860e+000
      vertex   -9.356915e+001 2.605937e+001 3.162790e+000
    endloop
  endfacet
  facet normal 3.262239e-007 -3.212441e-001 8.525315e-002
    outer loop
      vertex   -9.266914e+001 2.671447e+001 5.631281e+000
      vertex   -9.356915e+001 2.605937e+001 3.162790e+000
      vertex   -9.266914e+001 2.541999e+001 7.535352e-001
    endloop
  endfacet
  facet normal -3.229955e-007 -3.460859e-001 9.184553e-002
    outer loop
      vertex   -9.266914e+001 2.541999e+001 7.535352e-001
      vertex   -9.356915e+001 2.605937e+001 3.162790e+000
      vertex   -9.416914e+001 2.586520e+001 2.431137e+000
    endloop
  endfacet
  facet normal 5.580742e-007 -3.502703e-001 9.295680e-002
    outer loop
      vertex   -9.266914e+001 2.541999e+001 7.535352e-001
      vertex   -9.416914e+001 2.586520e+001 2.431137e+000
      vertex   -9.416914e+001 2.562387e+001 1.521771e+000
    endloop
  endfacet
  facet normal 0.000000e+000 -7.574607e-001 2.010186e-001
    outer loop
      vertex   -9.636900e+001 2.571126e+001 1.851075e+000
      vertex   -9.596915e+001 2.571126e+001 1.851075e+000
      vertex   -9.686900e+001 2.587307e+001 2.460786e+000
    endloop
  endfacet
  facet normal -3.449313e-007 -9.487692e-001 2.517885e-001
    outer loop
      vertex   -9.686900e+001 2.587307e+001 2.460786e+000
      vertex   -9.596915e+001 2.571126e+001 1.851075e+000
      vertex   -9.596915e+001 2.639085e+001 4.411860e+000
    endloop
  endfacet
  facet normal 0.000000e+000 -2.261365e-001 6.001273e-002
    outer loop
      vertex   -9.416914e+001 2.562387e+001 1.521771e+000
      vertex   -9.326914e+001 2.541999e+001 7.535352e-001
      vertex   -9.266914e+001 2.541999e+001 7.535352e-001
    endloop
  endfacet
  facet normal -1.471948e-007 -8.265702e-001 2.193591e-001
    outer loop
      vertex   -9.266914e+001 2.671447e+001 5.631281e+000
      vertex   -9.316914e+001 2.687628e+001 6.240992e+000
      vertex   -9.686900e+001 2.657874e+001 5.119830e+000
    endloop
  endfacet
  facet normal 0.000000e+000 -2.891506e-001 7.673600e-002
    outer loop
      vertex   -9.686900e+001 2.657874e+001 5.119830e+000
      vertex   -9.316914e+001 2.687628e+001 6.240992e+000
      vertex   -1.084693e+002 2.657874e+001 5.119830e+000
    endloop
  endfacet
  facet normal 8.673617e-019 -3.580456e-001 9.501963e-002
    outer loop
      vertex   -1.084693e+002 2.657874e+001 5.119830e+000
      vertex   -9.316914e+001 2.687628e+001 6.240992e+000
      vertex   -1.121691e+002 2.687628e+001 6.240992e+000
    endloop
  endfacet
  facet normal 3.055719e-008 -1.715931e-001 4.553820e-002
    outer loop
      vertex   -1.084693e+002 2.657874e+001 5.119830e+000
      vertex   -1.121691e+002 2.687628e+001 6.240992e+000
      vertex   -1.126691e+002 2.671447e+001 5.631281e+000
    endloop
  endfacet
  facet normal -3.333296e-007 -3.282413e-001 8.711011e-002
    outer loop
      vertex   -1.126691e+002 2.541999e+001 7.535352e-001
      vertex   -1.117691e+002 2.605937e+001 3.162790e+000
      vertex   -1.126691e+002 2.671447e+001 5.631281e+000
    endloop
  endfacet
  facet normal -5.994819e-008 -2.678795e-001 7.109109e-002
    outer loop
      vertex   -1.126691e+002 2.671447e+001 5.631281e+000
      vertex   -1.117691e+002 2.605937e+001 3.162790e+000
      vertex   -1.117691e+002 2.639085e+001 4.411860e+000
    endloop
  endfacet
  facet normal 1.430407e-007 -7.105126e-001 1.885593e-001
    outer loop
      vertex   -1.126691e+002 2.671447e+001 5.631281e+000
      vertex   -1.117691e+002 2.639085e+001 4.411860e+000
      vertex   -1.084693e+002 2.657874e+001 5.119830e+000
    endloop
  endfacet
  facet normal 6.938894e-018 -4.332331e-001 1.149739e-001
    outer loop
      vertex   -1.084693e+002 2.657874e+001 5.119830e+000
      vertex   -1.117691e+002 2.639085e+001 4.411860e+000
      vertex   -1.093691e+002 2.639085e+001 4.411860e+000
    endloop
  endfacet
  facet normal 7.301944e-007 -7.495993e-001 1.989321e-001
    outer loop
      vertex   -1.084693e+002 2.657874e+001 5.119830e+000
      vertex   -1.093691e+002 2.639085e+001 4.411860e+000
      vertex   -1.084693e+002 2.587307e+001 2.460786e+000
    endloop
  endfacet
  facet normal 3.449313e-007 -9.487692e-001 2.517885e-001
    outer loop
      vertex   -1.084693e+002 2.587307e+001 2.460786e+000
      vertex   -1.093691e+002 2.639085e+001 4.411860e+000
      vertex   -1.093691e+002 2.571126e+001 1.851075e+000
    endloop
  endfacet
  facet normal 1.387779e-017 -2.756069e-001 7.314191e-002
    outer loop
      vertex   -1.084693e+002 2.587307e+001 2.460786e+000
      vertex   -1.093691e+002 2.571126e+001 1.851075e+000
      vertex   -1.089693e+002 2.571126e+001 1.851075e+000
    endloop
  endfacet
  facet normal 0.000000e+000 -6.398067e-001 1.697937e-001
    outer loop
      vertex   -1.120691e+002 2.541999e+001 7.535352e-001
      vertex   -1.111691e+002 2.562387e+001 1.521771e+000
      vertex   -1.126691e+002 2.541999e+001 7.535352e-001
    endloop
  endfacet
  facet normal -5.580742e-007 -3.502703e-001 9.295680e-002
    outer loop
      vertex   -1.126691e+002 2.541999e+001 7.535352e-001
      vertex   -1.111691e+002 2.562387e+001 1.521771e+000
      vertex   -1.111691e+002 2.586520e+001 2.431137e+000
    endloop
  endfacet
  facet normal 3.229955e-007 -3.460859e-001 9.184553e-002
    outer loop
      vertex   -1.126691e+002 2.541999e+001 7.535352e-001
      vertex   -1.111691e+002 2.586520e+001 2.431137e+000
      vertex   -1.117691e+002 2.605937e+001 3.162790e+000
    endloop
  endfacet
  facet normal 5.246792e-001 -5.941076e-001 -4.570050e-001
    outer loop
      vertex   -1.120691e+002 2.541999e+001 7.535352e-001
      vertex   -1.120691e+002 2.599963e+001 0.000000e+000
      vertex   -1.111691e+002 2.562387e+001 1.521771e+000
    endloop
  endfacet
  facet normal 3.485513e-001 -3.946723e-001 -3.035941e-001
    outer loop
      vertex   -1.111691e+002 2.562387e+001 1.521771e+000
      vertex   -1.120691e+002 2.599963e+001 0.000000e+000
      vertex   -1.111691e+002 2.679446e+001 2.486620e-013
    endloop
  endfacet
  facet normal 7.926239e-001 -0.000000e+000 -0.000000e+000
    outer loop
      vertex   -1.111691e+002 2.679446e+001 2.486620e-013
      vertex   -1.111691e+002 2.773531e+001 -2.839227e-013
      vertex   -1.111691e+002 2.562387e+001 1.521771e+000
    endloop
  endfacet
  facet normal 9.340897e-001 -0.000000e+000 0.000000e+000
    outer loop
      vertex   -1.111691e+002 2.562387e+001 1.521771e+000
      vertex   -1.111691e+002 2.773531e+001 -2.839227e-013
      vertex   -1.111691e+002 2.586520e+001 2.431137e+000
    endloop
  endfacet
  facet normal -5.246808e-001 -5.941075e-001 -4.570049e-001
    outer loop
      vertex   -9.326914e+001 2.599963e+001 -1.509903e-013
      vertex   -9.326914e+001 2.541999e+001 7.535352e-001
      vertex   -9.416914e+001 2.679446e+001 4.084269e-013
    endloop
  endfacet
  facet normal -3.485509e-001 -3.946725e-001 -3.035943e-001
    outer loop
      vertex   -9.416914e+001 2.679446e+001 4.084269e-013
      vertex   -9.326914e+001 2.541999e+001 7.535352e-001
      vertex   -9.416914e+001 2.562387e+001 1.521771e+000
    endloop
  endfacet
  facet normal 0.000000e+000 -7.926245e-001 -6.097100e-001
    outer loop
      vertex   -9.326914e+001 2.541999e+001 7.535352e-001
      vertex   -9.326914e+001 2.599963e+001 -1.509903e-013
      vertex   -9.266914e+001 2.541999e+001 7.535352e-001
    endloop
  endfacet
  facet normal -1.110223e-016 -4.230376e-001 -3.254129e-001
    outer loop
      vertex   -9.266914e+001 2.541999e+001 7.535352e-001
      vertex   -9.326914e+001 2.599963e+001 -1.509903e-013
      vertex   -9.266914e+001 2.599963e+001 -1.598721e-013
    endloop
  endfacet
  facet normal 7.926241e-001 0.000000e+000 0.000000e+000
    outer loop
      vertex   -1.117691e+002 2.639085e+001 4.411860e+000
      vertex   -1.117691e+002 2.605937e+001 3.162790e+000
      vertex   -1.117691e+002 2.978459e+001 -1.421085e-013
    endloop
  endfacet
  facet normal 6.472147e-001 0.000000e+000 0.000000e+000
    outer loop
      vertex   -1.117691e+002 2.978459e+001 -1.421085e-013
      vertex   -1.117691e+002 2.605937e+001 3.162790e+000
      vertex   -1.117691e+002 2.849229e+001 -4.440892e-014
    endloop
  endfacet
  facet normal 0.000000e+000 -7.926239e-001 -6.097109e-001
    outer loop
      vertex   -1.117691e+002 2.639085e+001 4.411860e+000
      vertex   -1.117691e+002 2.978459e+001 -1.421085e-013
      vertex   -1.093691e+002 2.639085e+001 4.411860e+000
    endloop
  endfacet
  facet normal 0.000000e+000 -3.138313e-001 -2.414088e-001
    outer loop
      vertex   -1.093691e+002 2.639085e+001 4.411860e+000
      vertex   -1.117691e+002 2.978459e+001 -1.421085e-013
      vertex   -1.093691e+002 2.978459e+001 -1.421085e-013
    endloop
  endfacet
  facet normal -7.926238e-001 0.000000e+000 0.000000e+000
    outer loop
      vertex   -9.356915e+001 2.849229e+001 -2.131628e-013
      vertex   -9.356915e+001 2.605937e+001 3.162790e+000
      vertex   -9.356915e+001 2.978459e+001 -3.019807e-013
    endloop
  endfacet
  facet normal -2.096094e-001 0.000000e+000 0.000000e+000
    outer loop
      vertex   -9.356915e+001 2.978459e+001 -3.019807e-013
      vertex   -9.356915e+001 2.605937e+001 3.162790e+000
      vertex   -9.356915e+001 2.639085e+001 4.411860e+000
    endloop
  endfacet
  facet normal -1.353829e-014 -7.926239e-001 -6.097109e-001
    outer loop
      vertex   -9.356915e+001 2.978459e+001 -3.019807e-013
      vertex   -9.356915e+001 2.639085e+001 4.411860e+000
      vertex   -9.596915e+001 2.978459e+001 -2.486900e-013
    endloop
  endfacet
  facet normal 0.000000e+000 -3.138321e-001 -2.414094e-001
    outer loop
      vertex   -9.596915e+001 2.978459e+001 -2.486900e-013
      vertex   -9.356915e+001 2.639085e+001 4.411860e+000
      vertex   -9.596915e+001 2.639085e+001 4.411860e+000
    endloop
  endfacet
  facet normal -0.000000e+000 -7.926245e-001 -6.097100e-001
    outer loop
      vertex   -1.120691e+002 2.599963e+001 0.000000e+000
      vertex   -1.120691e+002 2.541999e+001 7.535352e-001
      vertex   -1.126691e+002 2.599963e+001 0.000000e+000
    endloop
  endfacet
  facet normal -1.110223e-016 -4.230376e-001 -3.254129e-001
    outer loop
      vertex   -1.126691e+002 2.599963e+001 0.000000e+000
      vertex   -1.120691e+002 2.541999e+001 7.535352e-001
      vertex   -1.126691e+002 2.541999e+001 7.535352e-001
    endloop
  endfacet
  facet normal -7.926239e-001 0.000000e+000 0.000000e+000
    outer loop
      vertex   -9.416914e+001 2.679446e+001 4.084269e-013
      vertex   -9.416914e+001 2.562387e+001 1.521771e+000
      vertex   -9.416914e+001 2.773531e+001 1.114475e-014
    endloop
  endfacet
  facet normal -2.865262e-001 0.000000e+000 0.000000e+000
    outer loop
      vertex   -9.416914e+001 2.773531e+001 1.114475e-014
      vertex   -9.416914e+001 2.562387e+001 1.521771e+000
      vertex   -9.416914e+001 2.586520e+001 2.431137e+000
    endloop
  endfacet
  facet normal -6.211637e-001 -4.923497e-001 -3.787307e-001
    outer loop
      vertex   -9.636900e+001 2.713517e+001 -5.329071e-014
      vertex   -9.636900e+001 2.571126e+001 1.851075e+000
      vertex   -9.686900e+001 2.776598e+001 2.042810e-013
    endloop
  endfacet
  facet normal -1.779106e-001 -1.410162e-001 -1.084740e-001
    outer loop
      vertex   -9.686900e+001 2.776598e+001 2.042810e-013
      vertex   -9.636900e+001 2.571126e+001 1.851075e+000
      vertex   -9.686900e+001 2.587307e+001 2.460786e+000
    endloop
  endfacet
  facet normal 0.000000e+000 -7.926239e-001 -6.097109e-001
    outer loop
      vertex   -9.636900e+001 2.571126e+001 1.851075e+000
      vertex   -9.636900e+001 2.713517e+001 -5.329071e-014
      vertex   -9.596915e+001 2.571126e+001 1.851075e+000
    endloop
  endfacet
  facet normal 1.110223e-016 -1.337643e-001 -1.028957e-001
    outer loop
      vertex   -9.596915e+001 2.571126e+001 1.851075e+000
      vertex   -9.636900e+001 2.713517e+001 -5.329071e-014
      vertex   -9.596915e+001 2.713517e+001 -5.329071e-014
    endloop
  endfacet
  facet normal 6.211642e-001 -4.923495e-001 -3.787305e-001
    outer loop
      vertex   -1.089693e+002 2.571126e+001 1.851075e+000
      vertex   -1.089693e+002 2.713517e+001 3.552714e-014
      vertex   -1.084693e+002 2.587307e+001 2.460786e+000
    endloop
  endfacet
  facet normal 1.779104e-001 -1.410162e-001 -1.084740e-001
    outer loop
      vertex   -1.084693e+002 2.587307e+001 2.460786e+000
      vertex   -1.089693e+002 2.713517e+001 3.552714e-014
      vertex   -1.084693e+002 2.776598e+001 2.753353e-013
    endloop
  endfacet
  facet normal -0.000000e+000 -7.926239e-001 -6.097109e-001
    outer loop
      vertex   -1.089693e+002 2.713517e+001 3.552714e-014
      vertex   -1.089693e+002 2.571126e+001 1.851075e+000
      vertex   -1.093691e+002 2.713517e+001 3.552714e-014
    endloop
  endfacet
  facet normal 1.110223e-016 -1.337643e-001 -1.028957e-001
    outer loop
      vertex   -1.093691e+002 2.713517e+001 3.552714e-014
      vertex   -1.089693e+002 2.571126e+001 1.851075e+000
      vertex   -1.093691e+002 2.571126e+001 1.851075e+000
    endloop
  endfacet
  facet normal -7.926240e-001 0.000000e+000 -0.000000e+000
    outer loop
      vertex   -1.093691e+002 2.639085e+001 4.411860e+000
      vertex   -1.093691e+002 2.978459e+001 -1.421085e-013
      vertex   -1.093691e+002 2.571126e+001 1.851075e+000
    endloop
  endfacet
  facet normal -4.693570e-001 0.000000e+000 0.000000e+000
    outer loop
      vertex   -1.093691e+002 2.571126e+001 1.851075e+000
      vertex   -1.093691e+002 2.978459e+001 -1.421085e-013
      vertex   -1.093691e+002 2.713517e+001 3.552714e-014
    endloop
  endfacet
  facet normal -6.211638e-001 4.923488e-001 3.787301e-001
    outer loop
      vertex   -9.356915e+001 2.605937e+001 3.162790e+000
      vertex   -9.356915e+001 2.849229e+001 -2.131628e-013
      vertex   -9.416914e+001 2.586520e+001 2.431137e+000
    endloop
  endfacet
  facet normal -1.653199e-001 1.310363e-001 1.007971e-001
    outer loop
      vertex   -9.416914e+001 2.586520e+001 2.431137e+000
      vertex   -9.356915e+001 2.849229e+001 -2.131628e-013
      vertex   -9.416914e+001 2.773531e+001 1.114475e-014
    endloop
  endfacet
  facet normal -7.926238e-001 0.000000e+000 -0.000000e+000
    outer loop
      vertex   -1.126691e+002 2.671447e+001 5.631281e+000
      vertex   -1.126691e+002 3.104622e+001 2.575717e-013
      vertex   -1.126691e+002 2.541999e+001 7.535352e-001
    endloop
  endfacet
  facet normal -7.046725e-001 0.000000e+000 0.000000e+000
    outer loop
      vertex   -1.126691e+002 2.541999e+001 7.535352e-001
      vertex   -1.126691e+002 3.104622e+001 2.575717e-013
      vertex   -1.126691e+002 2.599963e+001 0.000000e+000
    endloop
  endfacet
  facet normal 4.560270e-015 7.926239e-001 6.097108e-001
    outer loop
      vertex   -1.121691e+002 3.167704e+001 -1.332268e-013
      vertex   -1.121691e+002 2.687628e+001 6.240992e+000
      vertex   -9.316914e+001 3.167704e+001 -2.753353e-013
    endloop
  endfacet
  facet normal -2.775558e-017 7.322375e-001 5.632597e-001
    outer loop
      vertex   -9.316914e+001 3.167704e+001 -2.753353e-013
      vertex   -1.121691e+002 2.687628e+001 6.240992e+000
      vertex   -9.316914e+001 2.687628e+001 6.240992e+000
    endloop
  endfacet
  facet normal 6.211644e-001 4.923488e-001 3.787300e-001
    outer loop
      vertex   -1.117691e+002 2.849229e+001 -4.440892e-014
      vertex   -1.117691e+002 2.605937e+001 3.162790e+000
      vertex   -1.111691e+002 2.773531e+001 -2.839227e-013
    endloop
  endfacet
  facet normal 1.653196e-001 1.310362e-001 1.007971e-001
    outer loop
      vertex   -1.111691e+002 2.773531e+001 -2.839227e-013
      vertex   -1.117691e+002 2.605937e+001 3.162790e+000
      vertex   -1.111691e+002 2.586520e+001 2.431137e+000
    endloop
  endfacet
  facet normal -6.211641e-001 4.923495e-001 3.787304e-001
    outer loop
      vertex   -1.126691e+002 2.671447e+001 5.631281e+000
      vertex   -1.121691e+002 2.687628e+001 6.240992e+000
      vertex   -1.126691e+002 3.104622e+001 2.575717e-013
    endloop
  endfacet
  facet normal -6.501734e-001 5.153420e-001 3.964170e-001
    outer loop
      vertex   -1.126691e+002 3.104622e+001 2.575717e-013
      vertex   -1.121691e+002 2.687628e+001 6.240992e+000
      vertex   -1.121691e+002 3.167704e+001 -1.332268e-013
    endloop
  endfacet
  facet normal 7.926240e-001 0.000000e+000 0.000000e+000
    outer loop
      vertex   -9.266914e+001 3.104622e+001 1.154632e-013
      vertex   -9.266914e+001 2.671447e+001 5.631281e+000
      vertex   -9.266914e+001 2.599963e+001 -1.598721e-013
    endloop
  endfacet
  facet normal 7.046711e-001 0.000000e+000 -0.000000e+000
    outer loop
      vertex   -9.266914e+001 2.599963e+001 -1.598721e-013
      vertex   -9.266914e+001 2.671447e+001 5.631281e+000
      vertex   -9.266914e+001 2.541999e+001 7.535352e-001
    endloop
  endfacet
  facet normal 6.211644e-001 4.923488e-001 3.787300e-001
    outer loop
      vertex   -9.316914e+001 3.167704e+001 -2.753353e-013
      vertex   -9.316914e+001 2.687628e+001 6.240992e+000
      vertex   -9.266914e+001 3.104622e+001 1.154632e-013
    endloop
  endfacet
  facet normal 6.646702e-002 5.268335e-002 4.052565e-002
    outer loop
      vertex   -9.266914e+001 3.104622e+001 1.154632e-013
      vertex   -9.316914e+001 2.687628e+001 6.240992e+000
      vertex   -9.266914e+001 2.671447e+001 5.631281e+000
    endloop
  endfacet
  facet normal 7.926240e-001 0.000000e+000 0.000000e+000
    outer loop
      vertex   -9.596915e+001 2.639085e+001 4.411860e+000
      vertex   -9.596915e+001 2.571126e+001 1.851075e+000
      vertex   -9.596915e+001 2.978459e+001 -2.486900e-013
    endloop
  endfacet
  facet normal 4.137216e-001 0.000000e+000 0.000000e+000
    outer loop
      vertex   -9.596915e+001 2.978459e+001 -2.486900e-013
      vertex   -9.596915e+001 2.571126e+001 1.851075e+000
      vertex   -9.596915e+001 2.713517e+001 -5.329071e-014
    endloop
  endfacet
endsolid
